<svg width="20" height="23" viewBox="0 0 20 23" fill="none" xmlns="http://www.w3.org/2000/svg">
<path d="M13.9732 13.5625C12.6786 13.5625 12.0982 14.25 10 14.25C7.85714 14.25 7.27678 13.5625 5.98213 13.5625C2.67857 13.5625 0 16.1836 0 19.3633V20.4375C0 21.5976 0.937501 22.5 2.14286 22.5H17.8571C19.0179 22.5 20 21.5976 20 20.4375V19.3633C20 16.1836 17.2768 13.5625 13.9732 13.5625ZM17.8571 20.4375H2.14286V19.3633C2.14286 17.3008 3.83928 15.625 5.98213 15.625C6.65179 15.625 7.67857 16.3125 10 16.3125C12.2768 16.3125 13.3036 15.625 13.9732 15.625C16.1161 15.625 17.8571 17.3008 17.8571 19.3633V20.4375ZM10 12.875C13.5268 12.875 16.4286 10.125 16.4286 6.6875C16.4286 3.29297 13.5268 0.5 10 0.5C6.42857 0.5 3.57143 3.29297 3.57143 6.6875C3.57143 10.125 6.42857 12.875 10 12.875ZM10 2.5625C12.3214 2.5625 14.2857 4.45312 14.2857 6.6875C14.2857 8.96485 12.3214 10.8125 10 10.8125C7.63392 10.8125 5.71429 8.96485 5.71429 6.6875C5.71429 4.45312 7.63392 2.5625 10 2.5625Z" fill="#252525"/>
</svg>
