<svg width="29" height="29" viewBox="0 0 29 29" fill="none" xmlns="http://www.w3.org/2000/svg">
<path d="M20.75 2H8.25C4.79822 2 2 4.79822 2 8.25V20.75C2 24.2018 4.79822 27 8.25 27H20.75C24.2018 27 27 24.2018 27 20.75V8.25C27 4.79822 24.2018 2 20.75 2Z" stroke="black" stroke-width="2.41667" stroke-linecap="round" stroke-linejoin="round"/>
<path d="M19.5006 13.7126C19.6549 14.7529 19.4772 15.8154 18.9928 16.7489C18.5084 17.6824 17.742 18.4394 16.8026 18.9122C15.8632 19.3851 14.7987 19.5496 13.7603 19.3825C12.722 19.2155 11.7628 18.7252 11.0192 17.9816C10.2755 17.2379 9.78528 16.2787 9.61819 15.2404C9.45111 14.2021 9.61569 13.1375 10.0885 12.1981C10.5613 11.2587 11.3183 10.4923 12.2518 10.0079C13.1853 9.52356 14.2478 9.34587 15.2881 9.50013C16.3493 9.65749 17.3317 10.152 18.0902 10.9105C18.8488 11.6691 19.3433 12.6515 19.5006 13.7126Z" stroke="black" stroke-width="2.41667" stroke-linecap="round" stroke-linejoin="round"/>
<path d="M21.3751 7.625H21.3864" stroke="black" stroke-width="2.41667" stroke-linecap="round" stroke-linejoin="round"/>
</svg>
