<svg width="15" height="17" viewBox="0 0 15 17" fill="none" xmlns="http://www.w3.org/2000/svg">
<path d="M10.0036 9.97115C9.0767 9.97115 8.66122 10.4615 7.15909 10.4615C5.625 10.4615 5.20951 9.97115 4.28266 9.97115C1.91761 9.97115 0 11.8407 0 14.1088V14.875C0 15.7025 0.671165 16.3461 1.53409 16.3461H12.7841C13.6151 16.3461 14.3182 15.7025 14.3182 14.875V14.1088C14.3182 11.8407 12.3686 9.97115 10.0036 9.97115ZM12.7841 14.875H1.53409V14.1088C1.53409 12.6376 2.74857 11.4423 4.28266 11.4423C4.76208 11.4423 5.49716 11.9327 7.15909 11.9327C8.78906 11.9327 9.52415 11.4423 10.0036 11.4423C11.5376 11.4423 12.7841 12.6376 12.7841 14.1088V14.875ZM7.15909 9.48076C9.68395 9.48076 11.7614 7.51922 11.7614 5.0673C11.7614 2.64603 9.68395 0.653839 7.15909 0.653839C4.60227 0.653839 2.55682 2.64603 2.55682 5.0673C2.55682 7.51922 4.60227 9.48076 7.15909 9.48076ZM7.15909 2.12499C8.82102 2.12499 10.2273 3.47355 10.2273 5.0673C10.2273 6.6917 8.82102 8.00961 7.15909 8.00961C5.4652 8.00961 4.09091 6.6917 4.09091 5.0673C4.09091 3.47355 5.4652 2.12499 7.15909 2.12499Z" fill="#CCCCD8"/>
</svg>
