<svg width="17" height="19" viewBox="0 0 17 19" fill="none" xmlns="http://www.w3.org/2000/svg">
<path d="M14.3333 8.64999H2.66667C1.74619 8.64999 1 9.41111 1 10.35V16.3C1 17.2389 1.74619 18 2.66667 18H14.3333C15.2538 18 16 17.2389 16 16.3V10.35C16 9.41111 15.2538 8.64999 14.3333 8.64999Z" stroke="#CCCCD8" stroke-width="2" stroke-linecap="round" stroke-linejoin="round"/>
<path d="M4.3335 8.65V5.25C4.3335 4.12283 4.77248 3.04183 5.55388 2.2448C6.33529 1.44777 7.39509 1 8.50016 1C9.60523 1 10.665 1.44777 11.4464 2.2448C12.2278 3.04183 12.6668 4.12283 12.6668 5.25V8.65" stroke="#CCCCD8" stroke-width="2" stroke-linecap="round" stroke-linejoin="round"/>
</svg>
